<?xml version="1.0" encoding="UTF-8"?>
<svg xmlns="http://www.w3.org/2000/svg" xmlns:xlink="http://www.w3.org/1999/xlink" width="30px" height="30px" viewBox="0 0 30 30" version="1.1">
<defs>
<clipPath id="clip1">
  <path d="M 4.667969 4.183594 L 24.992188 4.183594 L 24.992188 24.507812 L 4.667969 24.507812 Z M 4.667969 4.183594 "/>
</clipPath>
</defs>
<g id="surface1">
<g clip-path="url(#clip1)" clip-rule="nonzero">
<path style=" stroke:none;fill-rule:nonzero;fill:rgb(1.568627%,2.352941%,2.352941%);fill-opacity:1;" d="M 24.3125 23.492188 C 24.3125 23.679688 24.164062 23.832031 23.976562 23.832031 L 12.460938 23.832031 C 12.273438 23.832031 12.121094 23.679688 12.121094 23.492188 L 12.121094 16.039062 C 12.121094 15.855469 12.273438 15.703125 12.460938 15.703125 L 23.976562 15.703125 C 24.164062 15.703125 24.3125 15.855469 24.3125 16.039062 Z M 5.347656 19.425781 L 5.347656 16.417969 C 6.511719 17.234375 9.011719 17.660156 11.445312 17.722656 L 11.445312 21.109375 C 7.660156 21.003906 5.347656 20.078125 5.347656 19.425781 Z M 5.347656 12.007812 C 6.589844 12.878906 9.367188 13.332031 12.121094 13.332031 C 14.875 13.332031 17.652344 12.878906 18.894531 12.007812 L 18.894531 15.023438 L 12.460938 15.023438 C 11.898438 15.023438 11.445312 15.480469 11.445312 16.039062 L 11.445312 17.042969 C 7.660156 16.941406 5.347656 16.011719 5.347656 15.363281 Z M 5.347656 7.605469 C 6.589844 8.476562 9.367188 8.925781 12.121094 8.925781 C 14.875 8.925781 17.652344 8.476562 18.894531 7.605469 L 18.894531 10.960938 C 18.894531 11.648438 16.257812 12.652344 12.121094 12.652344 C 7.984375 12.652344 5.347656 11.648438 5.347656 10.960938 Z M 12.121094 4.863281 C 16.257812 4.863281 18.894531 5.867188 18.894531 6.554688 C 18.894531 7.246094 16.257812 8.25 12.121094 8.25 C 7.984375 8.25 5.347656 7.246094 5.347656 6.554688 C 5.347656 5.867188 7.984375 4.863281 12.121094 4.863281 Z M 23.976562 15.023438 L 19.574219 15.023438 L 19.574219 6.554688 C 19.574219 5 15.824219 4.183594 12.121094 4.183594 C 8.417969 4.183594 4.667969 5 4.667969 6.554688 L 4.667969 19.425781 C 4.667969 20.871094 8.023438 21.695312 11.445312 21.789062 L 11.445312 23.492188 C 11.445312 24.054688 11.898438 24.507812 12.460938 24.507812 L 23.976562 24.507812 C 24.535156 24.507812 24.992188 24.054688 24.992188 23.492188 L 24.992188 16.039062 C 24.992188 15.480469 24.535156 15.023438 23.976562 15.023438 "/>
</g>
<path style=" stroke:none;fill-rule:nonzero;fill:rgb(1.568627%,2.352941%,2.352941%);fill-opacity:1;" d="M 18.796875 20.882812 C 18.664062 20.75 18.449219 20.75 18.316406 20.882812 C 18.183594 21.015625 18.183594 21.226562 18.316406 21.359375 L 18.390625 21.433594 C 18.335938 21.449219 18.277344 21.460938 18.21875 21.460938 C 17.84375 21.460938 17.539062 21.15625 17.539062 20.78125 L 17.539062 18.75 C 17.539062 18.375 17.84375 18.074219 18.21875 18.074219 C 18.589844 18.074219 18.894531 18.375 18.894531 18.75 L 18.894531 20.78125 C 18.894531 20.839844 18.882812 20.898438 18.871094 20.957031 Z M 18.21875 17.394531 C 17.46875 17.394531 16.863281 18.003906 16.863281 18.75 L 16.863281 20.78125 C 16.863281 21.53125 17.46875 22.136719 18.21875 22.136719 C 18.46875 22.136719 18.699219 22.0625 18.902344 21.945312 L 18.996094 22.039062 C 19.058594 22.105469 19.144531 22.136719 19.234375 22.136719 C 19.320312 22.136719 19.40625 22.105469 19.472656 22.039062 C 19.605469 21.90625 19.605469 21.691406 19.472656 21.558594 L 19.378906 21.464844 C 19.5 21.265625 19.574219 21.03125 19.574219 20.78125 L 19.574219 18.75 C 19.574219 18.003906 18.964844 17.394531 18.21875 17.394531 "/>
<path style=" stroke:none;fill-rule:nonzero;fill:rgb(1.568627%,2.352941%,2.352941%);fill-opacity:1;" d="M 14.832031 18.074219 C 15.203125 18.074219 15.507812 18.375 15.507812 18.75 C 15.507812 18.9375 15.660156 19.089844 15.847656 19.089844 C 16.035156 19.089844 16.183594 18.9375 16.183594 18.75 C 16.183594 18.003906 15.578125 17.394531 14.832031 17.394531 C 14.082031 17.394531 13.476562 18.003906 13.476562 18.75 C 13.476562 19.496094 14.082031 20.105469 14.832031 20.105469 C 15.203125 20.105469 15.507812 20.410156 15.507812 20.78125 C 15.507812 21.15625 15.203125 21.460938 14.832031 21.460938 C 14.457031 21.460938 14.152344 21.15625 14.152344 20.78125 C 14.152344 20.59375 14 20.445312 13.8125 20.445312 C 13.628906 20.445312 13.476562 20.59375 13.476562 20.78125 C 13.476562 21.53125 14.082031 22.136719 14.832031 22.136719 C 15.578125 22.136719 16.183594 21.53125 16.183594 20.78125 C 16.183594 20.035156 15.578125 19.425781 14.832031 19.425781 C 14.457031 19.425781 14.152344 19.121094 14.152344 18.75 C 14.152344 18.375 14.457031 18.074219 14.832031 18.074219 "/>
<path style=" stroke:none;fill-rule:nonzero;fill:rgb(1.568627%,2.352941%,2.352941%);fill-opacity:1;" d="M 22.621094 21.460938 L 20.925781 21.460938 L 20.925781 17.734375 C 20.925781 17.546875 20.773438 17.394531 20.589844 17.394531 C 20.402344 17.394531 20.25 17.546875 20.25 17.734375 L 20.25 21.796875 C 20.25 21.984375 20.402344 22.136719 20.589844 22.136719 L 22.621094 22.136719 C 22.808594 22.136719 22.960938 21.984375 22.960938 21.796875 C 22.960938 21.613281 22.808594 21.460938 22.621094 21.460938 "/>
</g>
</svg>
