<svg xmlns="http://www.w3.org/2000/svg" xmlns:xlink="http://www.w3.org/1999/xlink" width="40" zoomAndPan="magnify" viewBox="0 0 30 30.000001" height="40" preserveAspectRatio="xMidYMid meet" version="1.0"><defs><clipPath id="ee22e0c555"><path d="M 4.65625 4.171875 L 25.707031 4.171875 L 25.707031 25.222656 L 4.65625 25.222656 Z M 4.65625 4.171875 " clip-rule="nonzero"/></clipPath></defs><g clip-path="url(#ee22e0c555)"><path fill="#000000" d="M 19.039062 24.519531 C 15.75 24.519531 13.078125 21.84375 13.078125 18.554688 C 13.078125 15.269531 15.75 12.59375 19.039062 12.59375 C 22.328125 12.59375 25.003906 15.269531 25.003906 18.554688 C 25.003906 21.84375 22.328125 24.519531 19.039062 24.519531 Z M 10.972656 16.101562 C 7.285156 16.101562 5.359375 15.1875 5.359375 14.699219 L 5.359375 14.308594 C 6.464844 15.027344 8.722656 15.398438 10.972656 15.398438 C 11.757812 15.398438 12.53125 15.355469 13.25 15.269531 C 13.113281 15.507812 12.992188 15.75 12.882812 16.003906 C 12.261719 16.066406 11.621094 16.101562 10.972656 16.101562 Z M 12.375 18.554688 C 12.375 18.65625 12.386719 18.753906 12.390625 18.855469 C 11.917969 18.886719 11.445312 18.90625 10.972656 18.90625 C 7.285156 18.90625 5.359375 17.992188 5.359375 17.503906 L 5.359375 15.714844 C 6.464844 16.429688 8.722656 16.800781 10.972656 16.800781 C 11.535156 16.800781 12.089844 16.773438 12.636719 16.726562 C 12.46875 17.308594 12.375 17.921875 12.375 18.554688 Z M 5.359375 11.503906 C 6.464844 12.21875 8.722656 12.59375 10.972656 12.59375 C 13.21875 12.59375 15.480469 12.21875 16.585938 11.503906 L 16.585938 12.367188 C 15.46875 12.8125 14.5 13.550781 13.773438 14.488281 C 12.925781 14.625 11.964844 14.699219 10.972656 14.699219 C 7.285156 14.699219 5.359375 13.785156 5.359375 13.292969 Z M 5.359375 10.101562 C 6.464844 10.816406 8.722656 11.191406 10.972656 11.191406 C 13.21875 11.191406 15.480469 10.816406 16.585938 10.101562 L 16.585938 10.488281 C 16.585938 10.976562 14.65625 11.890625 10.972656 11.890625 C 7.285156 11.890625 5.359375 10.976562 5.359375 10.488281 Z M 5.359375 7.292969 C 6.464844 8.011719 8.722656 8.382812 10.972656 8.382812 C 13.21875 8.382812 15.480469 8.011719 16.585938 7.292969 L 16.585938 9.085938 C 16.585938 9.574219 14.65625 10.488281 10.972656 10.488281 C 7.285156 10.488281 5.359375 9.574219 5.359375 9.085938 Z M 10.972656 4.875 C 14.65625 4.875 16.585938 5.789062 16.585938 6.277344 C 16.585938 6.765625 14.65625 7.679688 10.972656 7.679688 C 7.285156 7.679688 5.359375 6.765625 5.359375 6.277344 C 5.359375 5.789062 7.285156 4.875 10.972656 4.875 Z M 19.039062 11.890625 C 18.433594 11.890625 17.84375 11.980469 17.285156 12.132812 L 17.285156 6.277344 C 17.285156 4.894531 14.109375 4.171875 10.972656 4.171875 C 7.832031 4.171875 4.65625 4.894531 4.65625 6.277344 L 4.65625 17.503906 C 4.65625 18.886719 7.832031 19.609375 10.972656 19.609375 C 11.464844 19.609375 11.964844 19.585938 12.457031 19.550781 C 12.941406 22.753906 15.703125 25.222656 19.039062 25.222656 C 22.714844 25.222656 25.707031 22.230469 25.707031 18.554688 C 25.707031 14.882812 22.714844 11.890625 19.039062 11.890625 " fill-opacity="1" fill-rule="nonzero"/></g><path fill="#000000" d="M 15.882812 16.800781 C 16.269531 16.800781 16.585938 17.117188 16.585938 17.503906 C 16.585938 17.695312 16.742188 17.855469 16.933594 17.855469 C 17.128906 17.855469 17.285156 17.695312 17.285156 17.503906 C 17.285156 16.730469 16.65625 16.101562 15.882812 16.101562 C 15.109375 16.101562 14.480469 16.730469 14.480469 17.503906 C 14.480469 18.277344 15.109375 18.90625 15.882812 18.90625 C 16.269531 18.90625 16.585938 19.222656 16.585938 19.609375 C 16.585938 19.996094 16.269531 20.308594 15.882812 20.308594 C 15.496094 20.308594 15.179688 19.996094 15.179688 19.609375 C 15.179688 19.414062 15.023438 19.257812 14.832031 19.257812 C 14.636719 19.257812 14.480469 19.414062 14.480469 19.609375 C 14.480469 20.382812 15.109375 21.011719 15.882812 21.011719 C 16.65625 21.011719 17.285156 20.382812 17.285156 19.609375 C 17.285156 18.835938 16.65625 18.207031 15.882812 18.207031 C 15.496094 18.207031 15.179688 17.890625 15.179688 17.503906 C 15.179688 17.117188 15.496094 16.800781 15.882812 16.800781 " fill-opacity="1" fill-rule="nonzero"/><path fill="#000000" d="M 20.09375 19.503906 L 20.035156 19.414062 C 19.925781 19.253906 19.710938 19.210938 19.546875 19.316406 C 19.386719 19.425781 19.339844 19.640625 19.449219 19.804688 L 19.726562 20.21875 C 19.625 20.277344 19.511719 20.308594 19.390625 20.308594 C 19.003906 20.308594 18.691406 19.996094 18.691406 19.609375 L 18.691406 17.503906 C 18.691406 17.117188 19.003906 16.800781 19.390625 16.800781 C 19.777344 16.800781 20.09375 17.117188 20.09375 17.503906 Z M 19.390625 16.101562 C 18.617188 16.101562 17.988281 16.730469 17.988281 17.503906 L 17.988281 19.609375 C 17.988281 20.382812 18.617188 21.011719 19.390625 21.011719 C 19.660156 21.011719 19.90625 20.933594 20.117188 20.804688 L 20.152344 20.855469 C 20.257812 21.011719 20.480469 21.058594 20.636719 20.953125 C 20.800781 20.847656 20.84375 20.628906 20.734375 20.464844 L 20.613281 20.285156 C 20.722656 20.082031 20.792969 19.855469 20.792969 19.609375 L 20.792969 17.503906 C 20.792969 16.730469 20.164062 16.101562 19.390625 16.101562 " fill-opacity="1" fill-rule="nonzero"/><path fill="#000000" d="M 22.199219 20.308594 L 22.199219 16.453125 C 22.199219 16.257812 22.039062 16.101562 21.847656 16.101562 C 21.652344 16.101562 21.496094 16.257812 21.496094 16.453125 L 21.496094 20.660156 C 21.496094 20.855469 21.652344 21.011719 21.847656 21.011719 L 23.25 21.011719 C 23.441406 21.011719 23.601562 20.855469 23.601562 20.660156 C 23.601562 20.46875 23.441406 20.308594 23.25 20.308594 L 22.199219 20.308594 " fill-opacity="1" fill-rule="nonzero"/></svg>